<svg width="18" height="18" viewBox="0 0 18 18" fill="none" xmlns="http://www.w3.org/2000/svg">
<path fill-rule="evenodd" clip-rule="evenodd" d="M1.02773 1.02773C1.5647 0.490757 2.4353 0.490757 2.97227 1.02773L9 7.05546L15.0277 1.02773C15.5647 0.490757 16.4353 0.490757 16.9723 1.02773C17.5092 1.5647 17.5092 2.4353 16.9723 2.97227L10.9445 9L16.9723 15.0277C17.5092 15.5647 17.5092 16.4353 16.9723 16.9723C16.4353 17.5092 15.5647 17.5092 15.0277 16.9723L9 10.9445L2.97227 16.9723C2.4353 17.5092 1.5647 17.5092 1.02773 16.9723C0.490757 16.4353 0.490757 15.5647 1.02773 15.0277L7.05546 9L1.02773 2.97227C0.490757 2.4353 0.490757 1.5647 1.02773 1.02773Z" fill="white"/>
</svg>
