<svg width="143" height="45" viewBox="0 0 143 45" fill="none" xmlns="http://www.w3.org/2000/svg">
<g clip-path="url(#clip0_2005_1310)">
<path d="M-0.0942383 25.9875C-0.0942383 36.4312 8.51976 44.9812 19.0417 44.9812H123.789C134.311 44.9812 142.925 36.4312 142.925 25.9875V19.0312C142.925 8.58747 134.311 0.0374756 123.789 0.0374756H19.0417C8.51976 0.0374756 -0.0942383 8.58747 -0.0942383 19.0312V25.9875Z" fill="#0597F2"/>
<path d="M7.21633 4.125C4.64724 7.36875 3.09823 11.4375 3.09823 15.8625V22.8188C3.09823 33.2625 11.7122 41.8125 22.2342 41.8125H126.981C131.439 41.8125 135.539 40.275 138.807 37.725C135.293 42.1313 129.871 44.9813 123.789 44.9813H19.0417C8.51976 44.9813 -0.0942383 36.4312 -0.0942383 25.9875V19.0312C-0.0942383 12.9937 2.7582 7.6125 7.21633 4.125Z" fill="#028CD1"/>
<path opacity="0.5" d="M139.732 29.1375V22.1812C139.732 11.7375 131.118 3.18749 120.596 3.18749H15.8493C11.3912 3.18749 7.29196 4.72498 4.02393 7.27498C7.53753 2.86873 12.9591 0.0187378 19.0418 0.0187378H123.789C134.311 0.0187378 142.925 8.56873 142.925 19.0125V25.9687C142.925 31.9875 140.053 37.3875 135.614 40.875C138.183 37.65 139.732 33.5625 139.732 29.1375Z" fill="#2EB9FF"/>
<path d="M32.5293 26.7188C32.5293 27.1125 32.4538 27.3938 32.3216 27.5813C32.1893 27.7688 31.9626 27.9563 31.6604 28.125C31.4904 28.2188 31.2637 28.3313 30.9992 28.425C30.7348 28.5188 30.4325 28.5938 30.1303 28.6688C29.8091 28.7438 29.488 28.8 29.1291 28.8375C28.7891 28.875 28.4301 28.8938 28.0901 28.8938C27.1834 28.8938 26.3144 28.7625 25.521 28.5188C24.7276 28.275 24.0287 27.9 23.4431 27.4125C22.8575 26.9063 22.3852 26.2875 22.0452 25.5563C21.7052 24.8063 21.5352 23.9438 21.5352 22.9688C21.5352 21.9375 21.7241 21.0375 22.1019 20.2688C22.4797 19.5 22.9708 18.8625 23.5942 18.3563C24.2176 17.85 24.9165 17.475 25.7099 17.2125C26.5033 16.9688 27.3156 16.8375 28.1468 16.8375C29.3558 16.8375 30.3003 17.025 31.0181 17.4188C31.7171 17.7938 32.076 18.3 32.076 18.9188C32.076 19.2375 32.0004 19.5375 31.8304 19.7625C31.6604 20.0063 31.4715 20.1938 31.2637 20.325C30.9426 20.1375 30.5459 19.95 30.0736 19.7625C29.6013 19.575 29.0535 19.4813 28.4679 19.4813C27.4101 19.4813 26.56 19.7813 25.9366 20.3813C25.3132 20.9813 24.9921 21.825 24.9921 22.8938C24.9921 23.475 25.0865 23.9813 25.2566 24.3938C25.4266 24.8063 25.6533 25.1625 25.9555 25.425C26.2389 25.6875 26.5789 25.8938 26.9567 26.025C27.3345 26.1563 27.7501 26.2313 28.1657 26.2313C28.449 26.2313 28.6946 26.2125 28.9024 26.1563C29.1102 26.1 29.2802 26.0438 29.3935 25.9875V24.2063H27.3534C27.2778 24.075 27.2023 23.8875 27.1267 23.6625C27.0511 23.4375 27.0134 23.1938 27.0134 22.95C27.0134 22.5 27.1267 22.1625 27.3345 21.975C27.5423 21.7688 27.8068 21.675 28.1468 21.675H31.3581C31.7359 21.675 32.0382 21.7875 32.246 21.9938C32.4538 22.2 32.5671 22.5 32.5671 22.875V26.7188H32.5293Z" fill="#028CD1"/>
<path d="M39.3679 28.8938C38.6123 28.8938 37.9322 28.7813 37.29 28.575C36.6477 28.3688 36.0999 28.05 35.6087 27.6375C35.1365 27.225 34.7587 26.7 34.4942 26.0625C34.2297 25.425 34.0786 24.6938 34.0786 23.85C34.0786 23.025 34.2108 22.3125 34.4942 21.7125C34.7587 21.1125 35.1176 20.625 35.571 20.2313C36.0054 19.8563 36.5155 19.5563 37.1011 19.3875C37.6678 19.2 38.2534 19.1063 38.8579 19.1063C39.5379 19.1063 40.1424 19.2 40.6902 19.4063C41.2381 19.6125 41.7103 19.8938 42.1259 20.2313C42.5226 20.5875 42.8437 21 43.0515 21.4875C43.2782 21.975 43.3916 22.5188 43.3916 23.1C43.3916 23.5313 43.2782 23.85 43.0326 24.075C42.7871 24.3 42.447 24.45 42.0315 24.5063L37.3278 25.2C37.46 25.6125 37.7433 25.9313 38.1778 26.1375C38.6123 26.3438 39.1034 26.4563 39.6702 26.4563C40.1991 26.4563 40.6902 26.3813 41.1436 26.25C41.6159 26.1188 41.9748 25.9688 42.277 25.7813C42.4848 25.9125 42.6548 26.0813 42.7871 26.3063C42.9193 26.5313 42.9949 26.775 42.9949 27.0188C42.9949 27.5813 42.7304 28.0125 42.2015 28.275C41.8048 28.4813 41.3325 28.6313 40.8414 28.7063C40.2935 28.8563 39.8213 28.8938 39.3679 28.8938ZM38.839 21.4688C38.5367 21.4688 38.2723 21.525 38.0456 21.6188C37.8189 21.7125 37.6489 21.8438 37.4978 22.0125C37.3655 22.1625 37.2522 22.35 37.1766 22.5375C37.1011 22.725 37.0633 22.9313 37.0444 23.1375L40.2935 22.6125C40.2558 22.3688 40.1235 22.1063 39.878 21.8625C39.6513 21.6 39.3112 21.4688 38.839 21.4688Z" fill="#028CD1"/>
<path d="M48.1516 25.4438C48.1516 25.7625 48.2649 26.0063 48.4727 26.1375C48.6805 26.2688 48.9828 26.3438 49.3606 26.3438C49.5495 26.3438 49.7384 26.325 49.9462 26.2875C50.154 26.25 50.324 26.2125 50.4751 26.1563C50.5885 26.2875 50.6829 26.4563 50.7774 26.625C50.8718 26.7938 50.9096 27 50.9096 27.2438C50.9096 27.7313 50.7207 28.1063 50.3618 28.4063C50.0029 28.7063 49.3606 28.8563 48.4539 28.8563C47.3393 28.8563 46.4704 28.6125 45.8848 28.1063C45.2803 27.6 44.978 26.7938 44.978 25.65V17.5688C45.1103 17.5313 45.3181 17.4938 45.5825 17.4375C45.847 17.4 46.1114 17.3625 46.4137 17.3625C46.9804 17.3625 47.4149 17.4563 47.7171 17.6625C48.0194 17.85 48.1894 18.2625 48.1894 18.9V20.1H50.6829C50.7585 20.2313 50.834 20.4188 50.9096 20.625C50.9852 20.8313 51.0229 21.0563 51.0229 21.3188C51.0229 21.7688 50.9285 22.0688 50.7207 22.275C50.5318 22.4625 50.2673 22.575 49.9273 22.575H48.1894V25.4438H48.1516Z" fill="#028CD1"/>
<path d="M59.8637 24.0375C59.297 23.85 58.8058 23.6625 58.3336 23.4563C57.8802 23.2688 57.4835 23.025 57.1624 22.7438C56.8412 22.4625 56.5768 22.1438 56.3878 21.75C56.1989 21.375 56.1045 20.9063 56.1045 20.3438C56.1045 19.275 56.5201 18.4125 57.3513 17.775C58.1824 17.1375 59.3536 16.8188 60.846 16.8188C61.3938 16.8188 61.9038 16.8563 62.3761 16.9313C62.8484 17.0063 63.245 17.1188 63.5851 17.2875C63.9251 17.4375 64.1896 17.6438 64.3785 17.8875C64.5674 18.1313 64.6618 18.4125 64.6618 18.75C64.6618 19.0688 64.5863 19.35 64.4351 19.5938C64.284 19.8188 64.0951 20.025 63.8873 20.1938C63.604 20.025 63.2262 19.8563 62.7728 19.725C62.3005 19.5938 61.7905 19.5188 61.2238 19.5188C60.6571 19.5188 60.2415 19.5938 59.977 19.7625C59.7126 19.9125 59.5803 20.1188 59.5803 20.3625C59.5803 20.55 59.6559 20.7 59.8259 20.8313C59.9959 20.9438 60.2415 21.0563 60.5626 21.1688L61.5638 21.4875C62.7539 21.8625 63.6795 22.35 64.3029 22.9313C64.9452 23.5125 65.2663 24.3188 65.2663 25.3125C65.2663 26.3813 64.8507 27.2438 64.0007 27.9C63.1506 28.5563 61.9038 28.8937 60.2604 28.8937C59.6748 28.8937 59.1269 28.8375 58.6358 28.7438C58.1258 28.65 57.6913 28.5187 57.3324 28.3312C56.9546 28.1437 56.6712 27.9188 56.4634 27.6563C56.2556 27.3938 56.1423 27.075 56.1423 26.7188C56.1423 26.3625 56.2556 26.0438 56.4634 25.7813C56.6712 25.5188 56.9168 25.3313 57.1624 25.1813C57.5213 25.4625 57.9557 25.7062 58.4658 25.8937C58.9758 26.1 59.5425 26.1938 60.147 26.1938C60.7704 26.1938 61.2049 26.1 61.4505 25.9125C61.696 25.725 61.8283 25.5 61.8283 25.2563C61.8283 25.0125 61.7338 24.8063 61.526 24.675C61.3182 24.5438 61.0349 24.4125 60.676 24.2813L59.8637 24.0375Z" fill="#028CD1"/>
<path d="M70.0456 25.4438C70.0456 25.7625 70.159 26.0063 70.3668 26.1375C70.5746 26.2688 70.8768 26.3438 71.2546 26.3438C71.4435 26.3438 71.6324 26.325 71.8402 26.2875C72.048 26.25 72.218 26.2125 72.3692 26.1563C72.4825 26.2875 72.577 26.4563 72.6714 26.625C72.7659 26.7938 72.8036 27 72.8036 27.2438C72.8036 27.7313 72.6147 28.1063 72.2558 28.4063C71.8969 28.7063 71.2546 28.8563 70.3479 28.8563C69.2334 28.8563 68.3644 28.6125 67.7788 28.1063C67.1743 27.6 66.8721 26.7938 66.8721 25.65V17.5688C67.0043 17.5313 67.2121 17.4938 67.4766 17.4375C67.741 17.4 68.0055 17.3625 68.3077 17.3625C68.8744 17.3625 69.3089 17.4563 69.6112 17.6625C69.9134 17.85 70.0834 18.2625 70.0834 18.9V20.1H72.5392C72.6147 20.2313 72.6903 20.4188 72.7659 20.625C72.8414 20.8313 72.8792 21.0563 72.8792 21.3188C72.8792 21.7688 72.7848 22.0688 72.577 22.275C72.3881 22.4625 72.1236 22.575 71.7836 22.575H70.0456V25.4438Z" fill="#028CD1"/>
<path d="M78.2253 19.125C78.9053 19.125 79.5287 19.2 80.0954 19.3313C80.6621 19.4625 81.1344 19.6875 81.55 19.9688C81.9467 20.25 82.2489 20.6063 82.4756 21.0375C82.6834 21.4688 82.7967 21.9937 82.7967 22.575V26.8125C82.7967 27.1313 82.7023 27.4125 82.5134 27.6187C82.3245 27.825 82.1167 28.0125 81.8522 28.1625C81.021 28.65 79.8687 28.8937 78.3764 28.8937C77.6964 28.8937 77.0919 28.8375 76.5629 28.7062C76.0151 28.575 75.5617 28.3875 75.165 28.1437C74.7872 27.9 74.485 27.5625 74.2772 27.1875C74.0694 26.7938 73.9561 26.3437 73.9561 25.8375C73.9561 24.975 74.2205 24.3 74.7306 23.8313C75.2595 23.3625 76.0529 23.0813 77.1485 22.9688L79.642 22.7063V22.575C79.642 22.2187 79.472 21.9563 79.1509 21.7875C78.8298 21.6375 78.3575 21.5437 77.753 21.5437C77.2619 21.5437 76.8085 21.6 76.3362 21.6938C75.8829 21.7875 75.4673 21.9188 75.1084 22.0688C74.9383 21.9563 74.8061 21.7875 74.6928 21.5437C74.5794 21.3187 74.5228 21.075 74.5228 20.8125C74.5228 20.4937 74.5983 20.2312 74.7683 20.025C74.9195 19.8375 75.165 19.6688 75.5051 19.5188C75.864 19.3875 76.2985 19.275 76.8085 19.2188C77.3185 19.1625 77.7908 19.125 78.2253 19.125ZM78.3764 26.55C78.5842 26.55 78.8298 26.5313 79.0942 26.475C79.3587 26.4375 79.5476 26.3625 79.6798 26.2875V24.7687L78.3197 24.8813C77.9608 24.9 77.6775 24.975 77.4508 25.1063C77.2241 25.2375 77.1107 25.425 77.1107 25.6688C77.1107 25.9125 77.2052 26.1188 77.413 26.2875C77.583 26.475 77.923 26.55 78.3764 26.55Z" fill="#028CD1"/>
<path d="M88.0102 28.575C87.878 28.6125 87.6891 28.65 87.4057 28.6875C87.1413 28.725 86.8579 28.7438 86.5557 28.7438C86.2723 28.7438 86.0267 28.725 85.8001 28.6875C85.5734 28.65 85.3845 28.575 85.2333 28.4625C85.0822 28.35 84.9689 28.2 84.8744 27.9938C84.7989 27.8063 84.7422 27.5438 84.7422 27.225V21.5625C84.7422 21.2813 84.7989 21.0188 84.9122 20.8125C85.0255 20.6063 85.1767 20.4188 85.3845 20.25C85.5923 20.0813 85.8378 19.9313 86.1401 19.8C86.4423 19.6688 86.7635 19.5563 87.1035 19.4438C87.4435 19.35 87.8024 19.2563 88.1613 19.2C88.5203 19.1438 88.8981 19.1063 89.257 19.1063C89.8615 19.1063 90.3526 19.2188 90.7115 19.4625C91.0705 19.6875 91.2405 20.0813 91.2405 20.6063C91.2405 20.775 91.2216 20.9625 91.1649 21.1313C91.1082 21.3 91.0516 21.45 90.976 21.6C90.7115 21.6 90.4282 21.6188 90.1637 21.6375C89.8804 21.6563 89.6159 21.6938 89.3514 21.75C89.087 21.8063 88.8414 21.8625 88.5958 21.9188C88.3691 21.975 88.1613 22.05 87.9913 22.125V28.575H88.0102Z" fill="#028CD1"/>
<path d="M95.8308 25.4438C95.8308 25.7625 95.9441 26.0063 96.1519 26.1375C96.3597 26.2688 96.662 26.3438 97.0398 26.3438C97.2287 26.3438 97.4176 26.325 97.6254 26.2875C97.8332 26.25 98.0032 26.2125 98.1543 26.1563C98.2677 26.2875 98.3621 26.4563 98.4566 26.625C98.5321 26.7938 98.5888 27 98.5888 27.2438C98.5888 27.7313 98.3999 28.1063 98.041 28.4063C97.6821 28.7063 97.0398 28.8563 96.1331 28.8563C95.0185 28.8563 94.1496 28.6125 93.564 28.1063C92.9595 27.6 92.6572 26.7938 92.6572 25.65V17.5688C92.7895 17.5313 92.9973 17.4938 93.2617 17.4375C93.5262 17.4 93.7906 17.3625 94.0929 17.3625C94.6596 17.3625 95.0941 17.4563 95.3963 17.6625C95.6986 17.85 95.8686 18.2625 95.8686 18.9V20.1H98.3621C98.4377 20.2313 98.5132 20.4188 98.5888 20.625C98.6644 20.8313 98.7021 21.0563 98.7021 21.3188C98.7021 21.7688 98.6077 22.0688 98.3999 22.275C98.211 22.4625 97.9465 22.575 97.6065 22.575H95.8686V25.4438H95.8308Z" fill="#028CD1"/>
<path d="M105.087 28.8938C104.332 28.8938 103.651 28.7813 103.009 28.575C102.367 28.3688 101.819 28.05 101.328 27.6375C100.856 27.225 100.478 26.7 100.213 26.0625C99.949 25.425 99.7979 24.6938 99.7979 23.85C99.7979 23.025 99.9301 22.3125 100.213 21.7125C100.478 21.1125 100.837 20.625 101.29 20.2313C101.725 19.8563 102.235 19.5563 102.82 19.3875C103.387 19.2 103.973 19.1063 104.577 19.1063C105.257 19.1063 105.862 19.2 106.409 19.4063C106.957 19.6125 107.43 19.8938 107.845 20.2313C108.242 20.5875 108.563 21 108.771 21.4875C108.997 21.975 109.111 22.5188 109.111 23.1C109.111 23.5313 108.997 23.85 108.752 24.075C108.506 24.3 108.166 24.45 107.751 24.5063L103.047 25.2C103.179 25.6125 103.463 25.9313 103.897 26.1375C104.332 26.3438 104.823 26.4563 105.389 26.4563C105.918 26.4563 106.409 26.3813 106.863 26.25C107.335 26.1188 107.694 25.9688 107.996 25.7813C108.204 25.9125 108.374 26.0813 108.506 26.3063C108.639 26.5313 108.714 26.775 108.714 27.0188C108.714 27.5813 108.45 28.0125 107.921 28.275C107.524 28.4813 107.052 28.6313 106.561 28.7063C106.013 28.8563 105.541 28.8938 105.087 28.8938ZM104.558 21.4688C104.256 21.4688 103.992 21.525 103.765 21.6188C103.538 21.7125 103.368 21.8438 103.217 22.0125C103.085 22.1625 102.971 22.35 102.896 22.5375C102.82 22.725 102.783 22.9313 102.764 23.1375L106.013 22.6125C105.975 22.3688 105.843 22.1063 105.597 21.8625C105.389 21.6 105.03 21.4688 104.558 21.4688Z" fill="#028CD1"/>
<path d="M110.244 24C110.244 23.175 110.376 22.4438 110.622 21.8438C110.868 21.225 111.226 20.7188 111.68 20.325C112.133 19.9313 112.662 19.6313 113.267 19.425C113.871 19.2375 114.513 19.125 115.212 19.125C115.458 19.125 115.722 19.1438 115.949 19.2C116.195 19.2375 116.384 19.2938 116.535 19.3688V16.3125C116.667 16.275 116.856 16.2375 117.139 16.1813C117.422 16.1438 117.706 16.1063 117.989 16.1063C118.273 16.1063 118.518 16.125 118.745 16.1625C118.971 16.2 119.16 16.275 119.312 16.3875C119.463 16.5 119.576 16.65 119.652 16.8563C119.727 17.0438 119.765 17.3063 119.765 17.625V26.5688C119.765 27.1688 119.482 27.6375 118.934 27.9938C118.575 28.2375 118.084 28.4438 117.498 28.6313C116.912 28.8188 116.251 28.9125 115.477 28.9125C114.646 28.9125 113.909 28.8 113.267 28.575C112.605 28.35 112.058 28.0125 111.604 27.6C111.151 27.1688 110.811 26.6625 110.584 26.0625C110.357 25.425 110.244 24.75 110.244 24ZM115.647 21.6375C114.967 21.6375 114.438 21.825 114.06 22.2188C113.701 22.6125 113.512 23.1938 113.512 24C113.512 24.7875 113.682 25.3688 114.022 25.7625C114.362 26.1563 114.853 26.3625 115.515 26.3625C115.741 26.3625 115.949 26.325 116.138 26.25C116.327 26.175 116.459 26.1 116.572 26.0063V21.8438C116.308 21.7125 116.006 21.6375 115.647 21.6375Z" fill="#028CD1"/>
<path d="M33.2847 26.7188C33.2847 27.1125 33.2092 27.3938 33.0769 27.5813C32.9447 27.7688 32.718 27.9563 32.4158 28.125C32.2457 28.2188 32.0191 28.3313 31.7546 28.425C31.4901 28.5188 31.1879 28.5938 30.8856 28.6688C30.5645 28.7438 30.2434 28.8 29.8845 28.8375C29.5444 28.875 29.1855 28.8938 28.8455 28.8938C27.9387 28.8938 27.0698 28.7625 26.2764 28.5188C25.483 28.275 24.7841 27.9 24.1985 27.4125C23.6129 26.9063 23.1406 26.2875 22.8006 25.5563C22.4605 24.8063 22.2905 23.9438 22.2905 22.9688C22.2905 21.9375 22.4794 21.0375 22.8572 20.2688C23.235 19.5 23.7262 18.8625 24.3496 18.3563C24.973 17.85 25.6719 17.475 26.4653 17.2125C27.2587 16.9688 28.071 16.8375 28.9022 16.8375C30.1111 16.8375 31.0557 17.025 31.7735 17.4188C32.4724 17.7938 32.8313 18.3 32.8313 18.9188C32.8313 19.2375 32.7558 19.5375 32.5858 19.7625C32.4158 20.0063 32.2269 20.1938 32.0191 20.325C31.6979 20.1375 31.3012 19.95 30.829 19.7625C30.3567 19.575 29.8089 19.4813 29.2233 19.4813C28.1654 19.4813 27.3154 19.7813 26.692 20.3813C26.0686 20.9813 25.7475 21.825 25.7475 22.8938C25.7475 23.475 25.8419 23.9813 26.0119 24.3938C26.1819 24.8063 26.4086 25.1625 26.7109 25.425C26.9942 25.6875 27.3343 25.8938 27.7121 26.025C28.0899 26.1563 28.5055 26.2313 28.921 26.2313C29.2044 26.2313 29.45 26.2125 29.6578 26.1563C29.8656 26.1 30.0356 26.0438 30.1489 25.9875V24.2063H28.1088C28.0332 24.075 27.9576 23.8875 27.8821 23.6625C27.8065 23.4375 27.7687 23.1938 27.7687 22.95C27.7687 22.5 27.8821 22.1625 28.0899 21.975C28.2977 21.7688 28.5621 21.675 28.9022 21.675H32.1135C32.4913 21.675 32.7936 21.7875 33.0014 21.9938C33.2092 22.2 33.3225 22.5 33.3225 22.875V26.7188H33.2847Z" fill="white"/>
<path d="M40.1233 28.8938C39.3677 28.8938 38.6876 28.7813 38.0453 28.575C37.4031 28.3688 36.8553 28.05 36.3641 27.6375C35.8918 27.225 35.514 26.7 35.2496 26.0625C34.9851 25.425 34.834 24.6938 34.834 23.85C34.834 23.025 34.9662 22.3125 35.2496 21.7125C35.514 21.1125 35.873 20.625 36.3263 20.2313C36.7608 19.8563 37.2708 19.5563 37.8564 19.3875C38.4232 19.2 39.0088 19.1063 39.6132 19.1063C40.2933 19.1063 40.8978 19.2 41.4456 19.4063C41.9934 19.6125 42.4657 19.8938 42.8813 20.2313C43.278 20.5875 43.5991 21 43.8069 21.4875C44.0336 21.975 44.1469 22.5188 44.1469 23.1C44.1469 23.5313 44.0336 23.85 43.788 24.075C43.5424 24.3 43.2024 24.45 42.7868 24.5063L38.0831 25.2C38.2154 25.6125 38.4987 25.9313 38.9332 26.1375C39.3677 26.3438 39.8588 26.4563 40.4255 26.4563C40.9545 26.4563 41.4456 26.3813 41.899 26.25C42.3712 26.1188 42.7302 25.9688 43.0324 25.7813C43.2402 25.9125 43.4102 26.0813 43.5424 26.3063C43.6747 26.5313 43.7502 26.775 43.7502 27.0188C43.7502 27.5813 43.4858 28.0125 42.9568 28.275C42.5601 28.4813 42.0879 28.6313 41.5967 28.7063C41.0489 28.8563 40.5767 28.8938 40.1233 28.8938ZM39.5944 21.4688C39.2921 21.4688 39.0276 21.525 38.801 21.6188C38.5743 21.7125 38.4043 21.8438 38.2531 22.0125C38.1209 22.1625 38.0076 22.35 37.932 22.5375C37.8564 22.725 37.8187 22.9313 37.7998 23.1375L41.0489 22.6125C41.0111 22.3688 40.8789 22.1063 40.6333 21.8625C40.4066 21.6 40.0666 21.4688 39.5944 21.4688Z" fill="white"/>
<path d="M48.907 25.4438C48.907 25.7625 49.0203 26.0063 49.2281 26.1375C49.4359 26.2688 49.7382 26.3438 50.116 26.3438C50.3049 26.3438 50.4938 26.325 50.7016 26.2875C50.9094 26.25 51.0794 26.2125 51.2305 26.1563C51.3438 26.2875 51.4383 26.4563 51.5327 26.625C51.6272 26.7938 51.665 27 51.665 27.2438C51.665 27.7313 51.4761 28.1063 51.1172 28.4063C50.7582 28.7063 50.116 28.8563 49.2092 28.8563C48.0947 28.8563 47.2257 28.6125 46.6401 28.1063C46.0356 27.6 45.7334 26.7938 45.7334 25.65V17.5688C45.8656 17.5313 46.0734 17.4938 46.3379 17.4375C46.6024 17.4 46.8668 17.3625 47.1691 17.3625C47.7358 17.3625 48.1703 17.4563 48.4725 17.6625C48.7747 17.85 48.9448 18.2625 48.9448 18.9V20.1H51.4383C51.5138 20.2313 51.5894 20.4188 51.665 20.625C51.7405 20.8313 51.7783 21.0563 51.7783 21.3188C51.7783 21.7688 51.6839 22.0688 51.4761 22.275C51.2872 22.4625 51.0227 22.575 50.6827 22.575H48.9448V25.4438H48.907Z" fill="white"/>
<path d="M60.619 24.0375C60.0523 23.85 59.5612 23.6625 59.0889 23.4563C58.6356 23.2688 58.2389 23.025 57.9177 22.7438C57.5966 22.4625 57.3321 22.1438 57.1432 21.75C56.9543 21.375 56.8599 20.9063 56.8599 20.3438C56.8599 19.275 57.2755 18.4125 58.1066 17.775C58.9378 17.1375 60.109 16.8188 61.6013 16.8188C62.1492 16.8188 62.6592 16.8563 63.1315 16.9313C63.6037 17.0063 64.0004 17.1188 64.3404 17.2875C64.6805 17.4375 64.9449 17.6438 65.1338 17.8875C65.3227 18.1313 65.4172 18.4125 65.4172 18.75C65.4172 19.0688 65.3416 19.35 65.1905 19.5938C65.0394 19.8188 64.8505 20.025 64.6427 20.1938C64.3593 20.025 63.9815 19.8563 63.5282 19.725C63.0559 19.5938 62.5459 19.5188 61.9792 19.5188C61.4124 19.5188 60.9969 19.5938 60.7324 19.7625C60.4679 19.9125 60.3357 20.1188 60.3357 20.3625C60.3357 20.55 60.4113 20.7 60.5813 20.8313C60.7513 20.9438 60.9969 21.0563 61.318 21.1688L62.3192 21.4875C63.5093 21.8625 64.4349 22.35 65.0583 22.9313C65.7005 23.5125 66.0217 24.3188 66.0217 25.3125C66.0217 26.3813 65.6061 27.2438 64.756 27.9C63.906 28.5563 62.6592 28.8937 61.0157 28.8937C60.4301 28.8937 59.8823 28.8375 59.3912 28.7438C58.8811 28.65 58.4467 28.5187 58.0877 28.3312C57.7099 28.1437 57.4266 27.9188 57.2188 27.6563C57.011 27.3938 56.8976 27.075 56.8976 26.7188C56.8976 26.3625 57.011 26.0438 57.2188 25.7813C57.4266 25.5188 57.6721 25.3313 57.9177 25.1813C58.2766 25.4625 58.7111 25.7062 59.2212 25.8937C59.7312 26.1 60.2979 26.1938 60.9024 26.1938C61.5258 26.1938 61.9603 26.1 62.2058 25.9125C62.4514 25.725 62.5836 25.5 62.5836 25.2563C62.5836 25.0125 62.4892 24.8063 62.2814 24.675C62.0736 24.5438 61.7902 24.4125 61.4313 24.2813L60.619 24.0375Z" fill="white"/>
<path d="M70.801 25.4438C70.801 25.7625 70.9144 26.0063 71.1222 26.1375C71.33 26.2688 71.6322 26.3438 72.01 26.3438C72.1989 26.3438 72.3878 26.325 72.5956 26.2875C72.8034 26.25 72.9734 26.2125 73.1245 26.1563C73.2379 26.2875 73.3323 26.4563 73.4268 26.625C73.5212 26.7938 73.559 27 73.559 27.2438C73.559 27.7313 73.3701 28.1063 73.0112 28.4063C72.6523 28.7063 72.01 28.8563 71.1033 28.8563C69.9887 28.8563 69.1198 28.6125 68.5342 28.1063C67.9297 27.6 67.6274 26.7938 67.6274 25.65V17.5688C67.7597 17.5313 67.9675 17.4938 68.2319 17.4375C68.4964 17.4 68.7609 17.3625 69.0631 17.3625C69.6298 17.3625 70.0643 17.4563 70.3665 17.6625C70.6688 17.85 70.8388 18.2625 70.8388 18.9V20.1H73.2945C73.3701 20.2313 73.4457 20.4188 73.5212 20.625C73.5968 20.8313 73.6346 21.0563 73.6346 21.3188C73.6346 21.7688 73.5401 22.0688 73.3323 22.275C73.1434 22.4625 72.879 22.575 72.5389 22.575H70.801V25.4438Z" fill="white"/>
<path d="M78.9806 19.125C79.6607 19.125 80.2841 19.2 80.8508 19.3313C81.4175 19.4625 81.8898 19.6875 82.3054 19.9688C82.702 20.25 83.0043 20.6063 83.231 21.0375C83.4388 21.4688 83.5521 21.9937 83.5521 22.575V26.8125C83.5521 27.1313 83.4577 27.4125 83.2688 27.6187C83.0799 27.825 82.8721 28.0125 82.6076 28.1625C81.7764 28.65 80.6241 28.8937 79.1318 28.8937C78.4517 28.8937 77.8472 28.8375 77.3183 28.7062C76.7705 28.575 76.3171 28.3875 75.9204 28.1437C75.5426 27.9 75.2404 27.5625 75.0326 27.1875C74.8248 26.7938 74.7114 26.3437 74.7114 25.8375C74.7114 24.975 74.9759 24.3 75.4859 23.8313C76.0149 23.3625 76.8083 23.0813 77.9039 22.9688L80.3974 22.7063V22.575C80.3974 22.2187 80.2274 21.9563 79.9063 21.7875C79.5851 21.6375 79.1129 21.5437 78.5084 21.5437C78.0172 21.5437 77.5639 21.6 77.0916 21.6938C76.6382 21.7875 76.2226 21.9188 75.8637 22.0688C75.6937 21.9563 75.5615 21.7875 75.4482 21.5437C75.3348 21.3187 75.2781 21.075 75.2781 20.8125C75.2781 20.4937 75.3537 20.2312 75.5237 20.025C75.6748 19.8375 75.9204 19.6688 76.2604 19.5188C76.6194 19.3875 77.0538 19.275 77.5639 19.2188C78.0739 19.1625 78.5462 19.125 78.9806 19.125ZM79.1318 26.55C79.3396 26.55 79.5851 26.5313 79.8496 26.475C80.1141 26.4375 80.303 26.3625 80.4352 26.2875V24.7687L79.0751 24.8813C78.7162 24.9 78.4328 24.975 78.2061 25.1063C77.9795 25.2375 77.8661 25.425 77.8661 25.6688C77.8661 25.9125 77.9606 26.1188 78.1684 26.2875C78.3384 26.475 78.6784 26.55 79.1318 26.55Z" fill="white"/>
<path d="M88.7656 28.575C88.6334 28.6125 88.4445 28.65 88.1611 28.6875C87.8966 28.725 87.6133 28.7438 87.311 28.7438C87.0277 28.7438 86.7821 28.725 86.5554 28.6875C86.3287 28.65 86.1398 28.575 85.9887 28.4625C85.8376 28.35 85.7242 28.2 85.6298 27.9938C85.5542 27.8063 85.4976 27.5438 85.4976 27.225V21.5625C85.4976 21.2813 85.5542 21.0188 85.6676 20.8125C85.7809 20.6063 85.932 20.4188 86.1398 20.25C86.3476 20.0813 86.5932 19.9313 86.8954 19.8C87.1977 19.6688 87.5188 19.5563 87.8589 19.4438C88.1989 19.35 88.5578 19.2563 88.9167 19.2C89.2756 19.1438 89.6534 19.1063 90.0124 19.1063C90.6168 19.1063 91.108 19.2188 91.4669 19.4625C91.8258 19.6875 91.9958 20.0813 91.9958 20.6063C91.9958 20.775 91.977 20.9625 91.9203 21.1313C91.8636 21.3 91.8069 21.45 91.7314 21.6C91.4669 21.6 91.1836 21.6188 90.9191 21.6375C90.6357 21.6563 90.3713 21.6938 90.1068 21.75C89.8423 21.8063 89.5968 21.8625 89.3512 21.9188C89.1245 21.975 88.9167 22.05 88.7467 22.125V28.575H88.7656Z" fill="white"/>
<path d="M96.5862 25.4438C96.5862 25.7625 96.6995 26.0063 96.9073 26.1375C97.1151 26.2688 97.4174 26.3438 97.7952 26.3438C97.9841 26.3438 98.173 26.325 98.3808 26.2875C98.5886 26.25 98.7586 26.2125 98.9097 26.1563C99.023 26.2875 99.1175 26.4563 99.2119 26.625C99.2875 26.7938 99.3442 27 99.3442 27.2438C99.3442 27.7313 99.1553 28.1063 98.7963 28.4063C98.4374 28.7063 97.7952 28.8563 96.8884 28.8563C95.7739 28.8563 94.9049 28.6125 94.3193 28.1063C93.7148 27.6 93.4126 26.7938 93.4126 25.65V17.5688C93.5448 17.5313 93.7526 17.4938 94.0171 17.4375C94.2816 17.4 94.546 17.3625 94.8483 17.3625C95.415 17.3625 95.8495 17.4563 96.1517 17.6625C96.4539 17.85 96.624 18.2625 96.624 18.9V20.1H99.1175C99.193 20.2313 99.2686 20.4188 99.3442 20.625C99.4197 20.8313 99.4575 21.0563 99.4575 21.3188C99.4575 21.7688 99.3631 22.0688 99.1553 22.275C98.9664 22.4625 98.7019 22.575 98.3619 22.575H96.624V25.4438H96.5862Z" fill="white"/>
<path d="M105.843 28.8938C105.087 28.8938 104.407 28.7813 103.765 28.575C103.122 28.3688 102.574 28.05 102.083 27.6375C101.611 27.225 101.233 26.7 100.969 26.0625C100.704 25.425 100.553 24.6938 100.553 23.85C100.553 23.025 100.685 22.3125 100.969 21.7125C101.233 21.1125 101.592 20.625 102.046 20.2313C102.48 19.8563 102.99 19.5563 103.576 19.3875C104.142 19.2 104.728 19.1063 105.332 19.1063C106.013 19.1063 106.617 19.2 107.165 19.4063C107.713 19.6125 108.185 19.8938 108.601 20.2313C108.997 20.5875 109.318 21 109.526 21.4875C109.753 21.975 109.866 22.5188 109.866 23.1C109.866 23.5313 109.753 23.85 109.507 24.075C109.262 24.3 108.922 24.45 108.506 24.5063L103.802 25.2C103.935 25.6125 104.218 25.9313 104.652 26.1375C105.087 26.3438 105.578 26.4563 106.145 26.4563C106.674 26.4563 107.165 26.3813 107.618 26.25C108.09 26.1188 108.449 25.9688 108.752 25.7813C108.959 25.9125 109.129 26.0813 109.262 26.3063C109.394 26.5313 109.469 26.775 109.469 27.0188C109.469 27.5813 109.205 28.0125 108.676 28.275C108.279 28.4813 107.807 28.6313 107.316 28.7063C106.768 28.8563 106.296 28.8938 105.843 28.8938ZM105.314 21.4688C105.011 21.4688 104.747 21.525 104.52 21.6188C104.294 21.7125 104.124 21.8438 103.972 22.0125C103.84 22.1625 103.727 22.35 103.651 22.5375C103.576 22.725 103.538 22.9313 103.519 23.1375L106.768 22.6125C106.73 22.3688 106.598 22.1063 106.353 21.8625C106.145 21.6 105.786 21.4688 105.314 21.4688Z" fill="white"/>
<path d="M111 24C111 23.175 111.132 22.4438 111.377 21.8438C111.623 21.225 111.982 20.7188 112.435 20.325C112.889 19.9313 113.417 19.6313 114.022 19.425C114.626 19.2375 115.269 19.125 115.968 19.125C116.213 19.125 116.478 19.1438 116.704 19.2C116.95 19.2375 117.139 19.2938 117.29 19.3688V16.3125C117.422 16.275 117.611 16.2375 117.894 16.1813C118.178 16.1438 118.461 16.1063 118.745 16.1063C119.028 16.1063 119.273 16.125 119.5 16.1625C119.727 16.2 119.916 16.275 120.067 16.3875C120.218 16.5 120.331 16.65 120.407 16.8563C120.482 17.0438 120.52 17.3063 120.52 17.625V26.5688C120.52 27.1688 120.237 27.6375 119.689 27.9938C119.33 28.2375 118.839 28.4438 118.253 28.6313C117.668 28.8188 117.007 28.9125 116.232 28.9125C115.401 28.9125 114.664 28.8 114.022 28.575C113.361 28.35 112.813 28.0125 112.36 27.6C111.906 27.1688 111.566 26.6625 111.34 26.0625C111.113 25.425 111 24.75 111 24ZM116.402 21.6375C115.722 21.6375 115.193 21.825 114.815 22.2188C114.456 22.6125 114.268 23.1938 114.268 24C114.268 24.7875 114.438 25.3688 114.778 25.7625C115.118 26.1563 115.609 26.3625 116.27 26.3625C116.497 26.3625 116.704 26.325 116.893 26.25C117.082 26.175 117.214 26.1 117.328 26.0063V21.8438C117.063 21.7125 116.761 21.6375 116.402 21.6375Z" fill="white"/>
</g>
<defs>
<clipPath id="clip0_2005_1310">
<rect width="143" height="45" fill="white"/>
</clipPath>
</defs>
</svg>
