<svg width="16" height="21" viewBox="0 0 16 21" fill="none" xmlns="http://www.w3.org/2000/svg">
<path d="M13.2344 6.72222H12.2891V4.80159C12.2891 2.15111 10.1716 0 7.5625 0C4.95344 0 2.83594 2.15111 2.83594 4.80159V6.72222H1.89062C0.850781 6.72222 0 7.58651 0 8.64286V18.246C0 19.3024 0.850781 20.1667 1.89062 20.1667H13.2344C14.2742 20.1667 15.125 19.3024 15.125 18.246V8.64286C15.125 7.58651 14.2742 6.72222 13.2344 6.72222ZM7.5625 15.3651C6.52266 15.3651 5.67188 14.5008 5.67188 13.4444C5.67188 12.3881 6.52266 11.5238 7.5625 11.5238C8.60234 11.5238 9.45312 12.3881 9.45312 13.4444C9.45312 14.5008 8.60234 15.3651 7.5625 15.3651ZM4.72656 6.72222V4.80159C4.72656 3.20746 5.99328 1.92063 7.5625 1.92063C9.13172 1.92063 10.3984 3.20746 10.3984 4.80159V6.72222H4.72656Z" fill="white"/>
</svg>
