<svg width="39" height="34" viewBox="0 0 39 34" fill="none" xmlns="http://www.w3.org/2000/svg">
<path d="M38.8576 1.39914C38.8576 0.93223 38.6242 0.478284 38.2092 0.218887C37.5347 -0.209117 36.6528 0.0113676 36.2507 0.698769L31.6075 8.71413C30.9071 7.97485 29.9085 7.482 28.7541 7.482H10.1035C8.93622 7.482 7.95051 7.96188 7.25014 8.71413L2.60694 0.698769C2.20487 0.0113676 1.32292 -0.209117 0.648492 0.218887C0.233457 0.478284 0 0.93223 0 1.39914V20.387C0 20.8539 0.233456 21.3079 0.622551 21.5672L18.5858 33.72C19.0916 34.0961 19.792 34.0961 20.2848 33.72L38.2351 21.5672C38.6242 21.3079 38.8576 20.8539 38.8576 20.387V1.39914ZM20.8166 10.3743L28.7801 10.3613C29.5972 10.3613 30.116 11.2433 29.7009 11.9566L20.8166 27.2869V10.3743ZM10.0776 10.3613L18.041 10.3743V27.2869L9.15671 11.9566C8.74167 11.2433 9.2475 10.3613 10.0776 10.3613ZM2.80148 6.62599L5.57703 11.4248L2.80148 16.2496V6.62599ZM6.78323 13.5389L7.00371 13.928L15.914 29.3621L2.78852 20.5037L6.78323 13.5389ZM22.9307 29.3621L31.841 13.928L32.0615 13.5389L36.0562 20.4908L22.9307 29.3621ZM36.0562 16.2496L33.2936 11.4248L36.0691 6.62599L36.0562 16.2496Z" fill="white"/>
</svg>
