<svg width="72" height="72" viewBox="0 0 72 72" fill="none" xmlns="http://www.w3.org/2000/svg">
<path d="M36 72C55.8823 72 72 55.8823 72 36C72 16.1177 55.8823 0 36 0C16.1177 0 0 16.1177 0 36C0 55.8823 16.1177 72 36 72Z" fill="url(#paint0_linear_2039_958)"/>
<path d="M29.3996 52.5C28.2333 52.5 28.4315 52.0596 28.0293 50.9492L24.5996 39.6618L50.9996 24" fill="#C8DAEA"/>
<path d="M29.4004 52.4999C30.3004 52.4999 30.698 52.0883 31.2004 51.5999L36.0004 46.9325L30.013 43.322" fill="#A9C9DD"/>
<path d="M30.0122 43.323L44.5201 54.0417C46.1757 54.9551 47.3706 54.4822 47.783 52.5046L53.6884 24.6757C54.2931 22.2517 52.7644 21.1522 51.1806 21.8713L16.5036 35.2426C14.1366 36.192 14.1504 37.5125 16.0722 38.101L24.9711 40.8785L45.573 27.881C46.5455 27.2912 47.4382 27.6083 46.7055 28.2585" fill="url(#paint1_linear_2039_958)"/>
<defs>
<linearGradient id="paint0_linear_2039_958" x1="27.0036" y1="3.0024" x2="9.0036" y2="45" gradientUnits="userSpaceOnUse">
<stop stop-color="#37AEE2"/>
<stop offset="1" stop-color="#1E96C8"/>
</linearGradient>
<linearGradient id="paint1_linear_2039_958" x1="31.4936" y1="38.2113" x2="35.3401" y2="50.6537" gradientUnits="userSpaceOnUse">
<stop stop-color="#EFF7FC"/>
<stop offset="1" stop-color="white"/>
</linearGradient>
</defs>
</svg>
